<mxfile host="Electron" modified="2023-06-20T22:52:50.812Z" agent="Mozilla/5.0 (Windows NT 10.0; Win64; x64) AppleWebKit/537.36 (KHTML, like Gecko) draw.io/21.2.1 Chrome/112.0.5615.87 Electron/24.1.2 Safari/537.36" etag="omI824jx4LULzH4Tx25G" version="21.2.1" type="device">
  <diagram name="Страница 1" id="38o2jICT_MmpytWVINLE">
    <mxGraphModel dx="2497" dy="1018" grid="1" gridSize="10" guides="1" tooltips="1" connect="1" arrows="1" fold="1" page="1" pageScale="1" pageWidth="827" pageHeight="1169" math="0" shadow="0">
      <root>
        <mxCell id="0" />
        <mxCell id="1" parent="0" />
        <mxCell id="q8TdnlpMvk0tqWVXr_Ix-19" style="edgeStyle=orthogonalEdgeStyle;rounded=0;orthogonalLoop=1;jettySize=auto;html=1;exitX=0.5;exitY=1;exitDx=0;exitDy=0;entryX=0.5;entryY=0;entryDx=0;entryDy=0;" edge="1" parent="1" source="q8TdnlpMvk0tqWVXr_Ix-4" target="q8TdnlpMvk0tqWVXr_Ix-6">
          <mxGeometry relative="1" as="geometry" />
        </mxCell>
        <mxCell id="q8TdnlpMvk0tqWVXr_Ix-4" value="&lt;h2&gt;&lt;b&gt;&lt;font style=&quot;font-size: 18px;&quot;&gt;Заставка&amp;nbsp;&lt;/font&gt;&lt;/b&gt;&lt;/h2&gt;" style="rounded=1;whiteSpace=wrap;html=1;" vertex="1" parent="1">
          <mxGeometry x="370" y="320" width="120" height="60" as="geometry" />
        </mxCell>
        <mxCell id="q8TdnlpMvk0tqWVXr_Ix-15" style="edgeStyle=orthogonalEdgeStyle;rounded=0;orthogonalLoop=1;jettySize=auto;html=1;exitX=0.75;exitY=1;exitDx=0;exitDy=0;entryX=0.5;entryY=0;entryDx=0;entryDy=0;" edge="1" parent="1" source="q8TdnlpMvk0tqWVXr_Ix-6" target="q8TdnlpMvk0tqWVXr_Ix-40">
          <mxGeometry relative="1" as="geometry">
            <mxPoint x="790" y="560" as="targetPoint" />
          </mxGeometry>
        </mxCell>
        <mxCell id="q8TdnlpMvk0tqWVXr_Ix-18" style="edgeStyle=orthogonalEdgeStyle;rounded=0;orthogonalLoop=1;jettySize=auto;html=1;exitX=0.25;exitY=1;exitDx=0;exitDy=0;" edge="1" parent="1" source="q8TdnlpMvk0tqWVXr_Ix-6" target="q8TdnlpMvk0tqWVXr_Ix-7">
          <mxGeometry relative="1" as="geometry" />
        </mxCell>
        <mxCell id="q8TdnlpMvk0tqWVXr_Ix-20" style="edgeStyle=orthogonalEdgeStyle;rounded=0;orthogonalLoop=1;jettySize=auto;html=1;exitX=0;exitY=0.5;exitDx=0;exitDy=0;" edge="1" parent="1" source="q8TdnlpMvk0tqWVXr_Ix-6">
          <mxGeometry relative="1" as="geometry">
            <mxPoint x="-60" y="629.9999999999998" as="targetPoint" />
          </mxGeometry>
        </mxCell>
        <mxCell id="q8TdnlpMvk0tqWVXr_Ix-31" style="edgeStyle=orthogonalEdgeStyle;rounded=0;orthogonalLoop=1;jettySize=auto;html=1;exitX=1;exitY=0.5;exitDx=0;exitDy=0;" edge="1" parent="1" source="q8TdnlpMvk0tqWVXr_Ix-6">
          <mxGeometry relative="1" as="geometry">
            <mxPoint x="1030" y="740" as="targetPoint" />
          </mxGeometry>
        </mxCell>
        <mxCell id="q8TdnlpMvk0tqWVXr_Ix-44" style="edgeStyle=orthogonalEdgeStyle;rounded=0;orthogonalLoop=1;jettySize=auto;html=1;exitX=0.5;exitY=1;exitDx=0;exitDy=0;" edge="1" parent="1" source="q8TdnlpMvk0tqWVXr_Ix-6" target="q8TdnlpMvk0tqWVXr_Ix-45">
          <mxGeometry relative="1" as="geometry">
            <mxPoint x="480" y="910" as="targetPoint" />
          </mxGeometry>
        </mxCell>
        <mxCell id="q8TdnlpMvk0tqWVXr_Ix-6" value="&lt;h2&gt;Главная страница&amp;nbsp;&lt;b&gt;&lt;font style=&quot;font-size: 18px;&quot;&gt;&amp;nbsp;&lt;/font&gt;&lt;/b&gt;&lt;/h2&gt;" style="rounded=1;whiteSpace=wrap;html=1;" vertex="1" parent="1">
          <mxGeometry x="370" y="420" width="120" height="60" as="geometry" />
        </mxCell>
        <mxCell id="q8TdnlpMvk0tqWVXr_Ix-12" style="edgeStyle=orthogonalEdgeStyle;rounded=0;orthogonalLoop=1;jettySize=auto;html=1;exitX=0.75;exitY=1;exitDx=0;exitDy=0;entryX=0.408;entryY=0.003;entryDx=0;entryDy=0;entryPerimeter=0;" edge="1" parent="1" source="q8TdnlpMvk0tqWVXr_Ix-7" target="q8TdnlpMvk0tqWVXr_Ix-10">
          <mxGeometry relative="1" as="geometry" />
        </mxCell>
        <mxCell id="q8TdnlpMvk0tqWVXr_Ix-14" style="edgeStyle=orthogonalEdgeStyle;rounded=0;orthogonalLoop=1;jettySize=auto;html=1;exitX=0.25;exitY=1;exitDx=0;exitDy=0;entryX=0.5;entryY=0;entryDx=0;entryDy=0;" edge="1" parent="1" source="q8TdnlpMvk0tqWVXr_Ix-7" target="q8TdnlpMvk0tqWVXr_Ix-9">
          <mxGeometry relative="1" as="geometry" />
        </mxCell>
        <mxCell id="q8TdnlpMvk0tqWVXr_Ix-7" value="&lt;h2&gt;Выбор Инструмента&lt;/h2&gt;" style="rounded=1;whiteSpace=wrap;html=1;" vertex="1" parent="1">
          <mxGeometry x="180" y="580" width="120" height="60" as="geometry" />
        </mxCell>
        <mxCell id="q8TdnlpMvk0tqWVXr_Ix-8" value="&lt;h2&gt;Piano-Roll Для игры&lt;/h2&gt;" style="rounded=1;whiteSpace=wrap;html=1;" vertex="1" parent="1">
          <mxGeometry x="630" y="690" width="120" height="60" as="geometry" />
        </mxCell>
        <mxCell id="q8TdnlpMvk0tqWVXr_Ix-9" value="&lt;h2&gt;Настройка модуляции&lt;/h2&gt;" style="rounded=1;whiteSpace=wrap;html=1;" vertex="1" parent="1">
          <mxGeometry x="110" y="730" width="120" height="60" as="geometry" />
        </mxCell>
        <mxCell id="q8TdnlpMvk0tqWVXr_Ix-10" value="&lt;h2 style=&quot;border-color: var(--border-color);&quot;&gt;Настройка Тональности&lt;/h2&gt;" style="rounded=1;whiteSpace=wrap;html=1;" vertex="1" parent="1">
          <mxGeometry x="260" y="730" width="120" height="60" as="geometry" />
        </mxCell>
        <mxCell id="q8TdnlpMvk0tqWVXr_Ix-11" value="&lt;h2&gt;Барабаны Для игры&lt;/h2&gt;" style="rounded=1;whiteSpace=wrap;html=1;" vertex="1" parent="1">
          <mxGeometry x="820" y="690" width="120" height="60" as="geometry" />
        </mxCell>
        <mxCell id="q8TdnlpMvk0tqWVXr_Ix-24" style="edgeStyle=orthogonalEdgeStyle;rounded=0;orthogonalLoop=1;jettySize=auto;html=1;exitX=0.75;exitY=1;exitDx=0;exitDy=0;entryX=0.408;entryY=0.003;entryDx=0;entryDy=0;entryPerimeter=0;" edge="1" parent="1" source="q8TdnlpMvk0tqWVXr_Ix-26" target="q8TdnlpMvk0tqWVXr_Ix-28">
          <mxGeometry relative="1" as="geometry" />
        </mxCell>
        <mxCell id="q8TdnlpMvk0tqWVXr_Ix-25" style="edgeStyle=orthogonalEdgeStyle;rounded=0;orthogonalLoop=1;jettySize=auto;html=1;exitX=0.25;exitY=1;exitDx=0;exitDy=0;entryX=0.5;entryY=0;entryDx=0;entryDy=0;" edge="1" parent="1" source="q8TdnlpMvk0tqWVXr_Ix-26" target="q8TdnlpMvk0tqWVXr_Ix-27">
          <mxGeometry relative="1" as="geometry" />
        </mxCell>
        <mxCell id="q8TdnlpMvk0tqWVXr_Ix-29" value="" style="edgeStyle=orthogonalEdgeStyle;rounded=0;orthogonalLoop=1;jettySize=auto;html=1;" edge="1" parent="1" source="q8TdnlpMvk0tqWVXr_Ix-26">
          <mxGeometry relative="1" as="geometry">
            <mxPoint x="-60" y="940" as="targetPoint" />
          </mxGeometry>
        </mxCell>
        <mxCell id="q8TdnlpMvk0tqWVXr_Ix-26" value="&lt;h2&gt;Запись звука&lt;/h2&gt;" style="rounded=1;whiteSpace=wrap;html=1;" vertex="1" parent="1">
          <mxGeometry x="-120" y="630" width="120" height="60" as="geometry" />
        </mxCell>
        <mxCell id="q8TdnlpMvk0tqWVXr_Ix-27" value="&lt;h2&gt;Начать запись&lt;/h2&gt;" style="rounded=1;whiteSpace=wrap;html=1;" vertex="1" parent="1">
          <mxGeometry x="-200" y="780" width="120" height="60" as="geometry" />
        </mxCell>
        <mxCell id="q8TdnlpMvk0tqWVXr_Ix-28" value="&lt;h2 style=&quot;border-color: var(--border-color);&quot;&gt;Записать&lt;/h2&gt;" style="rounded=1;whiteSpace=wrap;html=1;" vertex="1" parent="1">
          <mxGeometry x="-30" y="780" width="120" height="60" as="geometry" />
        </mxCell>
        <mxCell id="q8TdnlpMvk0tqWVXr_Ix-30" value="&lt;h2&gt;СТОП запись&lt;/h2&gt;" style="rounded=1;whiteSpace=wrap;html=1;" vertex="1" parent="1">
          <mxGeometry x="-120" y="940" width="120" height="60" as="geometry" />
        </mxCell>
        <mxCell id="q8TdnlpMvk0tqWVXr_Ix-32" style="edgeStyle=orthogonalEdgeStyle;rounded=0;orthogonalLoop=1;jettySize=auto;html=1;exitX=0.75;exitY=1;exitDx=0;exitDy=0;entryX=0.5;entryY=0;entryDx=0;entryDy=0;" edge="1" parent="1" source="q8TdnlpMvk0tqWVXr_Ix-35" target="q8TdnlpMvk0tqWVXr_Ix-37">
          <mxGeometry relative="1" as="geometry">
            <mxPoint x="1221" y="850" as="targetPoint" />
          </mxGeometry>
        </mxCell>
        <mxCell id="q8TdnlpMvk0tqWVXr_Ix-33" style="edgeStyle=orthogonalEdgeStyle;rounded=0;orthogonalLoop=1;jettySize=auto;html=1;exitX=0.25;exitY=1;exitDx=0;exitDy=0;entryX=0.5;entryY=0;entryDx=0;entryDy=0;" edge="1" parent="1" source="q8TdnlpMvk0tqWVXr_Ix-35" target="q8TdnlpMvk0tqWVXr_Ix-36">
          <mxGeometry relative="1" as="geometry" />
        </mxCell>
        <mxCell id="q8TdnlpMvk0tqWVXr_Ix-35" value="&lt;h2&gt;Запись звука&lt;/h2&gt;" style="rounded=1;whiteSpace=wrap;html=1;" vertex="1" parent="1">
          <mxGeometry x="980" y="740" width="120" height="60" as="geometry" />
        </mxCell>
        <mxCell id="q8TdnlpMvk0tqWVXr_Ix-36" value="&lt;h2&gt;Остановить все звуки&lt;/h2&gt;" style="rounded=1;whiteSpace=wrap;html=1;" vertex="1" parent="1">
          <mxGeometry x="900" y="880" width="120" height="60" as="geometry" />
        </mxCell>
        <mxCell id="q8TdnlpMvk0tqWVXr_Ix-37" value="&lt;h3 style=&quot;border-color: var(--border-color);&quot;&gt;&lt;font style=&quot;font-size: 18px;&quot;&gt;Отключенное устройство Midi&lt;/font&gt;&lt;/h3&gt;" style="rounded=1;whiteSpace=wrap;html=1;" vertex="1" parent="1">
          <mxGeometry x="1060" y="880" width="150" height="60" as="geometry" />
        </mxCell>
        <mxCell id="q8TdnlpMvk0tqWVXr_Ix-39" value="" style="edgeStyle=orthogonalEdgeStyle;rounded=0;orthogonalLoop=1;jettySize=auto;html=1;" edge="1" parent="1" source="q8TdnlpMvk0tqWVXr_Ix-35" target="q8TdnlpMvk0tqWVXr_Ix-38">
          <mxGeometry relative="1" as="geometry">
            <mxPoint x="1040" y="1050" as="targetPoint" />
            <mxPoint x="1040" y="800" as="sourcePoint" />
          </mxGeometry>
        </mxCell>
        <mxCell id="q8TdnlpMvk0tqWVXr_Ix-38" value="&lt;h2&gt;Включенное устройство Midi&lt;/h2&gt;" style="rounded=1;whiteSpace=wrap;html=1;" vertex="1" parent="1">
          <mxGeometry x="965" y="970" width="150" height="60" as="geometry" />
        </mxCell>
        <mxCell id="q8TdnlpMvk0tqWVXr_Ix-42" style="edgeStyle=orthogonalEdgeStyle;rounded=0;orthogonalLoop=1;jettySize=auto;html=1;exitX=0.25;exitY=1;exitDx=0;exitDy=0;entryX=0.5;entryY=0;entryDx=0;entryDy=0;" edge="1" parent="1" source="q8TdnlpMvk0tqWVXr_Ix-40" target="q8TdnlpMvk0tqWVXr_Ix-8">
          <mxGeometry relative="1" as="geometry" />
        </mxCell>
        <mxCell id="q8TdnlpMvk0tqWVXr_Ix-43" style="edgeStyle=orthogonalEdgeStyle;rounded=0;orthogonalLoop=1;jettySize=auto;html=1;exitX=0.75;exitY=1;exitDx=0;exitDy=0;entryX=0.5;entryY=0;entryDx=0;entryDy=0;" edge="1" parent="1" source="q8TdnlpMvk0tqWVXr_Ix-40" target="q8TdnlpMvk0tqWVXr_Ix-11">
          <mxGeometry relative="1" as="geometry" />
        </mxCell>
        <mxCell id="q8TdnlpMvk0tqWVXr_Ix-40" value="&lt;h2&gt;Воспроизведение звука&lt;/h2&gt;" style="rounded=1;whiteSpace=wrap;html=1;" vertex="1" parent="1">
          <mxGeometry x="680" y="555" width="180" height="60" as="geometry" />
        </mxCell>
        <mxCell id="q8TdnlpMvk0tqWVXr_Ix-45" value="&lt;h2&gt;Справка&lt;/h2&gt;" style="rounded=0;whiteSpace=wrap;html=1;" vertex="1" parent="1">
          <mxGeometry x="420" y="880" width="120" height="60" as="geometry" />
        </mxCell>
      </root>
    </mxGraphModel>
  </diagram>
</mxfile>
